<svg xmlns="http://www.w3.org/2000/svg" viewBox="0 0 32 32" fill="none">
  <rect width="32" height="32" rx="8" fill="#0F0F12"/>
  <path d="M8 22V10h4.2c2.4 0 3.9 1.2 3.9 3.1 0 1.3-.7 2.2-1.8 2.6 1.4.3 2.3 1.4 2.3 3 0 2.2-1.7 3.3-4.2 3.3H8zm2.2-7.8h1.8c1 0 1.6-.5 1.6-1.3 0-.8-.6-1.2-1.6-1.2h-1.8v2.5zm0 5.8h2c1.1 0 1.7-.5 1.7-1.4 0-.9-.6-1.4-1.7-1.4h-2v2.8z" fill="#F5F5F7"/>
  <circle cx="22" cy="16" r="3.5" fill="#4F8EF7"/>
  <circle cx="22" cy="16" r="6" stroke="#4F8EF7" stroke-width="1" opacity="0.35"/>
</svg>
